<svg xmlns="http://www.w3.org/2000/svg" width="506.59" height="89.97" viewBox="0 0 506.59 89.97">
  <g id="Group_363" data-name="Group 363" transform="translate(-17 -812.737)">
    <g id="Group_359" data-name="Group 359" transform="translate(-120.61 -159)">
      <path id="Path_244" data-name="Path 244" d="M15811.61,1003.2s10.549,4.527,13,9.376,0,7.9,0,7.9-5.367,1.9-8.4,5.428-2.861,3.7-3.281,5.428-.667,11.6-.667,11.6-.086,7.081,3.948,9.129,19.984-11.843,19.984-11.843,22.613-14.964,23.687-19.738-2.628-8.475-2.628-8.475l-22.292-20.886s-11.189-11.917-16.777-12.744-6.575,2.467-6.575,2.467Z" transform="translate(-15669)" fill="none" stroke="#f3f1f1" stroke-width="10"/>
      <path id="Path_246" data-name="Path 246" d="M15877.1,1011.844s19.892-24.017,28.918-29.313,11.675,0,11.675,0,5.253,8.047,2.355,16.116-9.443,10.132-10.277,13.2,4.439,3.232,7.922,10.3,3.482,18.326,3.482,18.326.541,18.347-4.463,15.991-17.637-16.95-17.637-16.95Z" transform="translate(-15669)" fill="none" stroke="#f3f1f1" stroke-width="10"/>
      <path id="Path_247" data-name="Path 247" d="M15857.88,1038.26c-6.735,11.98-10.793,10.039-8.66,15.284a9.228,9.228,0,0,0,7.377,5.661h24.585s5.792.754,7.49-2.341c1.275-2.324,1.558-2.453,1.413-3.662.011.015-.355-2.112-.355-2.112l-18.716-14.754S15864.615,1026.28,15857.88,1038.26Z" transform="translate(-15669)" fill="#f3f1f1" stroke="#f3f1f1" stroke-linecap="round" stroke-linejoin="round" stroke-width="1"/>
      <path id="Path_248" data-name="Path 248" d="M15870.373,974.618c-5.835-.16-18.579-2.134-19.405,3.541s3.28,7.723,6.488,10.437,5.282,6.5,10.783,7.081a11.512,11.512,0,0,0,8.955-2.961s10.609-7.649,10.7-11.35-3.454-5.514-3.454-5.514S15876.208,974.778,15870.373,974.618Z" transform="translate(-15669)" fill="#f3f1f1" stroke="#f3f1f1" stroke-linecap="round" stroke-linejoin="round" stroke-width="1"/>
    </g>
    <g id="Group_360" data-name="Group 360" transform="translate(151 815.157)">
      <path id="Path_244-2" data-name="Path 244" d="M15811.61,1027.291s10.549-4.528,13-9.376,0-7.9,0-7.9-5.367-1.9-8.4-5.428-2.861-3.7-3.281-5.428-.667-11.6-.667-11.6-.086-7.081,3.948-9.129,19.984,11.843,19.984,11.843,22.613,14.964,23.687,19.738-2.628,8.475-2.628,8.475l-22.292,20.885s-11.189,11.917-16.777,12.744-6.575-2.467-6.575-2.467Z" transform="translate(-15811.61 -971.204)" fill="none" stroke="#f3f1f1" stroke-width="10"/>
      <path id="Path_246-2" data-name="Path 246" d="M15877.1,1025s19.892,24.017,28.918,29.313,11.675,0,11.675,0,5.253-8.047,2.355-16.116-9.443-10.132-10.277-13.2,4.439-3.232,7.922-10.3,3.482-18.326,3.482-18.326.541-18.347-4.463-15.991-17.637,16.95-17.637,16.95Z" transform="translate(-15811.61 -977.561)" fill="none" stroke="#f3f1f1" stroke-width="10"/>
      <path id="Path_247-2" data-name="Path 247" d="M15857.88,1053.412c-6.735-11.98-10.793-10.039-8.66-15.284a9.228,9.228,0,0,1,7.377-5.661h24.585s5.792-.754,7.49,2.341c1.275,2.324,1.558,2.453,1.413,3.662.011-.015-.355,2.112-.355,2.112l-18.716,14.754S15864.615,1065.392,15857.88,1053.412Z" transform="translate(-15811.61 -1032.387)" fill="#f3f1f1" stroke="#f3f1f1" stroke-linecap="round" stroke-linejoin="round" stroke-width="1"/>
      <path id="Path_248-2" data-name="Path 248" d="M15870.373,995.28c-5.835.16-18.579,2.134-19.405-3.541s3.28-7.723,6.488-10.437,5.282-6.5,10.783-7.081a11.512,11.512,0,0,1,8.955,2.961s10.609,7.649,10.7,11.35-3.454,5.514-3.454,5.514S15876.208,995.119,15870.373,995.28Z" transform="translate(-15811.61 -910.612)" fill="#f3f1f1" stroke="#f3f1f1" stroke-linecap="round" stroke-linejoin="round" stroke-width="1"/>
    </g>
    <g id="Group_361" data-name="Group 361" transform="translate(137.39 -159)">
      <path id="Path_244-3" data-name="Path 244" d="M15811.61,1003.2s10.549,4.527,13,9.376,0,7.9,0,7.9-5.367,1.9-8.4,5.428-2.861,3.7-3.281,5.428-.667,11.6-.667,11.6-.086,7.081,3.948,9.129,19.984-11.843,19.984-11.843,22.613-14.964,23.687-19.738-2.628-8.475-2.628-8.475l-22.292-20.886s-11.189-11.917-16.777-12.744-6.575,2.467-6.575,2.467Z" transform="translate(-15669)" fill="none" stroke="#f3f1f1" stroke-width="10"/>
      <path id="Path_246-3" data-name="Path 246" d="M15877.1,1011.844s19.892-24.017,28.918-29.313,11.675,0,11.675,0,5.253,8.047,2.355,16.116-9.443,10.132-10.277,13.2,4.439,3.232,7.922,10.3,3.482,18.326,3.482,18.326.541,18.347-4.463,15.991-17.637-16.95-17.637-16.95Z" transform="translate(-15669)" fill="none" stroke="#f3f1f1" stroke-width="10"/>
      <path id="Path_247-3" data-name="Path 247" d="M15857.88,1038.26c-6.735,11.98-10.793,10.039-8.66,15.284a9.228,9.228,0,0,0,7.377,5.661h24.585s5.792.754,7.49-2.341c1.275-2.324,1.558-2.453,1.413-3.662.011.015-.355-2.112-.355-2.112l-18.716-14.754S15864.615,1026.28,15857.88,1038.26Z" transform="translate(-15669)" fill="#f3f1f1" stroke="#f3f1f1" stroke-linecap="round" stroke-linejoin="round" stroke-width="1"/>
      <path id="Path_248-3" data-name="Path 248" d="M15870.373,974.618c-5.835-.16-18.579-2.134-19.405,3.541s3.28,7.723,6.488,10.437,5.282,6.5,10.783,7.081a11.512,11.512,0,0,0,8.955-2.961s10.609-7.649,10.7-11.35-3.454-5.514-3.454-5.514S15876.208,974.778,15870.373,974.618Z" transform="translate(-15669)" fill="#f3f1f1" stroke="#f3f1f1" stroke-linecap="round" stroke-linejoin="round" stroke-width="1"/>
    </g>
    <g id="Group_362" data-name="Group 362" transform="translate(409 815.157)">
      <path id="Path_244-4" data-name="Path 244" d="M15811.61,1027.291s10.549-4.528,13-9.376,0-7.9,0-7.9-5.367-1.9-8.4-5.428-2.861-3.7-3.281-5.428-.667-11.6-.667-11.6-.086-7.081,3.948-9.129,19.984,11.843,19.984,11.843,22.613,14.964,23.687,19.738-2.628,8.475-2.628,8.475l-22.292,20.885s-11.189,11.917-16.777,12.744-6.575-2.467-6.575-2.467Z" transform="translate(-15811.61 -971.204)" fill="none" stroke="#f3f1f1" stroke-width="10"/>
      <path id="Path_246-4" data-name="Path 246" d="M15877.1,1025s19.892,24.017,28.918,29.313,11.675,0,11.675,0,5.253-8.047,2.355-16.116-9.443-10.132-10.277-13.2,4.439-3.232,7.922-10.3,3.482-18.326,3.482-18.326.541-18.347-4.463-15.991-17.637,16.95-17.637,16.95Z" transform="translate(-15811.61 -977.561)" fill="none" stroke="#f3f1f1" stroke-width="10"/>
      <path id="Path_247-4" data-name="Path 247" d="M15857.88,1053.412c-6.735-11.98-10.793-10.039-8.66-15.284a9.228,9.228,0,0,1,7.377-5.661h24.585s5.792-.754,7.49,2.341c1.275,2.324,1.558,2.453,1.413,3.662.011-.015-.355,2.112-.355,2.112l-18.716,14.754S15864.615,1065.392,15857.88,1053.412Z" transform="translate(-15811.61 -1032.387)" fill="#f3f1f1" stroke="#f3f1f1" stroke-linecap="round" stroke-linejoin="round" stroke-width="1"/>
      <path id="Path_248-4" data-name="Path 248" d="M15870.373,995.28c-5.835.16-18.579,2.134-19.405-3.541s3.28-7.723,6.488-10.437,5.282-6.5,10.783-7.081a11.512,11.512,0,0,1,8.955,2.961s10.609,7.649,10.7,11.35-3.454,5.514-3.454,5.514S15876.208,995.119,15870.373,995.28Z" transform="translate(-15811.61 -910.612)" fill="#f3f1f1" stroke="#f3f1f1" stroke-linecap="round" stroke-linejoin="round" stroke-width="1"/>
    </g>
  </g>
</svg>
