<svg xmlns="http://www.w3.org/2000/svg" width="250" height="250" viewBox="0 0 250 250">
  <g id="member_full" transform="translate(-442 -1180)">
    <path id="icons8_lion_head_1" d="M79.281,2.045c-10.745.277-19.814,2.8-25.149,7.174a26.934,26.934,0,0,0-4.193,4.728c-.709.761-.838,1.058-3.53,1.058-8.808,0-14.053,2.8-16.777,6.066a11.683,11.683,0,0,0-2.052,3.721H17.049a3.263,3.263,0,0,0-.363.019,15.961,15.961,0,0,0-9.9,4.594,12.543,12.543,0,0,0-2.638,4.186,3.263,3.263,0,0,0,2.064,4.071c-.092.1-.253.147-.338.255A9.8,9.8,0,0,0,4.013,44.55a21.639,21.639,0,0,0,1.918,7.71,3.263,3.263,0,0,0,3.925,1.746A54.2,54.2,0,0,1,19.744,52.1a15.627,15.627,0,0,1,5.868.459c1.172.451,1.223.324,1.223,1.593s-.3,1.573-1.6,2.275a16.645,16.645,0,0,1-5.989,1.408,50.791,50.791,0,0,1-9.857-.382,3.263,3.263,0,0,0-3.5,1.956C.729,71.6,7.83,82.086,7.83,82.086a3.263,3.263,0,0,0,5.41-.025c5.133-7.7,20.122-8.334,20.122-8.334h8.015c-.929.489-1.8.956-2.772,1.465-8.342,4.39-17.8,9.859-24.269,19.561-10.467,15.7-7.006,30.557-.886,40.613a58.69,58.69,0,0,0,14.776,16.063,3.263,3.263,0,0,0,5.091-2.135c.564-3.382,3.961-7.253,9.863-10.959S57.157,131.18,65.8,128.076c17.3-6.208,36.674-11,47.131-15.464,37.221-15.9,42.286-72.292,10.513-96.919l-.006-.006c-.083-.064-.172-.115-.255-.178-12.1-9.274-26.513-13.019-39.2-13.444Q81.587,1.984,79.281,2.045Zm4.486,6.537a67.238,67.238,0,0,1,15.859,2.491c-1.18-.017-2.391-.068-3.511-.019A49.51,49.51,0,0,0,77.682,15.3a40.021,40.021,0,0,0-13.2,9.494H35.132c1.51-1.536,4.453-3.262,11.278-3.262a11.248,11.248,0,0,0,8.309-3.141c1.607-1.726,2.161-2.991,3.542-4.122C61.957,11.238,72.115,8.192,83.767,8.583Zm12.641,8.946c6.481-.28,14.259.678,23.467,3.683a43.836,43.836,0,0,1,8.436,8.908q.922,1.3,1.752,2.657C145,57.179,137.552,95,110.374,106.61c-.436.186-1,.389-1.485.58,10.295-13.513,12.552-29.055,12.552-39.988,0-13.729-4.473-24.722-13.457-31.909-8.1-6.48-19.5-9.78-33.935-10.373a36.329,36.329,0,0,1,6.333-3.683A42.763,42.763,0,0,1,96.408,17.528ZM17.368,31.317H33.361a6.525,6.525,0,0,0,13.049,0H65.9q.108,0,.217,0H67a3.174,3.174,0,0,1,2.746,5.053c-1.662,2.457-5.667,4.734-7.028,4.734a3.263,3.263,0,0,0-3.262,3.262c0,6.525-.147,12.744-1.79,16.688a13.079,13.079,0,0,1-1.2,2.256c-.191.279-.408.555-.637.828C54.124,66.113,51.477,67.2,46.41,67.2H33.361s-12.985.027-21.67,7.659c-1.035-2.579-1.6-6.024-.248-10.845a34.207,34.207,0,0,0,8.3.319,21.407,21.407,0,0,0,8.589-2.16,9.355,9.355,0,0,0,5.027-8.022,8.522,8.522,0,0,0-5.4-7.684,19.82,19.82,0,0,0-8.71-.866,34.739,34.739,0,0,0-8,1.536,8.618,8.618,0,0,1-.72-2.854,3.738,3.738,0,0,1,.478-2.326c.287-.365.753-.828,2.816-.854a3.263,3.263,0,0,0,3.224-3.262V34.579a3.263,3.263,0,0,0-1.255-2.568C16.448,31.81,16.5,31.419,17.368,31.317Zm58.778.242c12.329.817,21.548,3.861,27.761,8.831,7.327,5.862,11.01,14.442,11.01,26.812,0,12.505-3.06,30.927-19.217,44.391l-.077.07c-6.008,1.866-12.61,3.873-19.612,6.111-.779-9.94,3.621-16.71,9-23.677,6.051-7.833,13.7-15.634,13.591-26.926-.155-15.514-6.423-24.832-12.769-29.851a30.439,30.439,0,0,0-9.417-5.046C76.355,32.026,76.23,31.8,76.146,31.559Zm-.382,7.41a23.865,23.865,0,0,1,6.028,3.473c5,3.953,10.152,10.945,10.29,24.792.083,8.22-5.9,14.688-12.227,22.874C73.979,97.714,68.164,107.07,69.66,119.9c-2.026.681-4.068,1.318-6.06,2.032a164.757,164.757,0,0,0-16.222,6.716,16.457,16.457,0,0,1-3.007-5.39c-1.55-4.273-2.284-10.419,1.72-18.765,2.346-4.891,6.481-8.935,10.787-12.444s8.683-6.295,11.584-9.679c10.328-12.049,11.509-23.17,9.666-31a28.6,28.6,0,0,0-4.326-9.7,15.4,15.4,0,0,0,1.357-1.65A9.538,9.538,0,0,0,75.764,38.969Zm-7.149,6.614a21.983,21.983,0,0,1,3.167,7.277c1.419,6.03.969,14.483-8.277,25.27-1.783,2.081-6.143,5.115-10.742,8.863s-9.541,8.4-12.558,14.687c-4.709,9.815-4.018,18.147-1.963,23.811a25.751,25.751,0,0,0,3.326,6.257c-.61.357-1.278.692-1.86,1.058a29.273,29.273,0,0,0-10.545,10.915,45.944,45.944,0,0,1-10.144-11.743c-5.3-8.7-8.361-19.945.745-33.6,5.459-8.189,13.732-13.119,21.88-17.407S57.933,73.3,62.218,66.494l-.121-.076a15.755,15.755,0,0,0,1.6-2.854c2.157-5.177,2.234-11.122,2.237-16.948A18.013,18.013,0,0,0,68.615,45.583Z" transform="translate(493 1227.981)" fill="#faaa28"/>
    <g id="Ellipse_272" data-name="Ellipse 272" transform="translate(442 1180)" fill="none" stroke="#faaa28" stroke-width="3">
      <circle cx="125" cy="125" r="125" stroke="none"/>
      <circle cx="125" cy="125" r="123.5" fill="none"/>
    </g>
  </g>
</svg>
